<?xml version="1.0" encoding="utf-8"?>
<!-- Generator: Adobe Illustrator 19.2.1, SVG Export Plug-In . SVG Version: 6.00 Build 0)  -->
<svg version="1.1" id="layer" xmlns="http://www.w3.org/2000/svg" xmlns:xlink="http://www.w3.org/1999/xlink" x="0px" y="0px"
	 viewBox="0 0 652 652" style="enable-background:new 0 0 652 652;" xml:space="preserve">
<style type="text/css">
	.st0{fill:#2A6EBB;}
	.st1{fill:#FFFFFF;}
</style>
<path class="st0" d="M350.3,332.2c0,6.7,3.9,11.8,9.3,11.8c5.3,0,9.3-5,9.3-11.9c0-5.2-2.6-11.8-9.2-11.8S350.3,326.4,350.3,332.2
	 M374.6,331.9c0,11.3-7.8,16.3-15.2,16.3c-8.3,0-14.7-6.1-14.7-15.8c0-10.3,6.7-16.3,15.2-16.3C368.7,316.1,374.6,322.5,374.6,331.9
	 M380.2,325.2c0-3.2-0.1-5.8-0.3-8.3h4.9l0.3,4.9h0.2c1.7-2.9,4.6-5.6,9.6-5.6c4.2,0,7.3,2.5,8.7,6.1h0.1c1-1.7,2.2-3,3.4-4
	c1.9-1.4,3.9-2.2,6.8-2.2c4.1,0,10.1,2.7,10.1,13.3v18.1h-5.5v-17.4c0-5.9-2.2-9.5-6.6-9.5c-3.2,0-5.6,2.3-6.6,5.1
	c-0.3,0.7-0.4,1.8-0.4,2.8v19h-5.5v-18.4c0-4.9-2.2-8.4-6.4-8.4c-3.5,0-6.1,2.8-6.9,5.6c-0.3,0.9-0.4,1.8-0.4,2.7v18.5h-5.5V325.2z
	 M451.5,328.8c0.1-3.6-1.5-9.2-7.9-9.2c-5.7,0-8.3,5.3-8.7,9.2L451.5,328.8L451.5,328.8z M434.9,332.9c0.1,7.7,5,10.9,10.7,10.9
	c4.1,0,6.5-0.7,8.7-1.6l1,4.1c-2,0.9-5.5,2-10.4,2c-9.6,0-15.4-6.4-15.4-15.8s5.6-16.9,14.7-16.9c10.2,0,12.9,9,12.9,14.8
	c0,1.2-0.1,2.1-0.2,2.6L434.9,332.9L434.9,332.9z M484,329.4l-4.3-12.5c-1-2.8-1.6-5.4-2.3-7.9h-0.1c-0.6,2.6-1.4,5.2-2.2,7.9
	l-4.3,12.6H484L484,329.4z M469.8,333.8l-4.5,13.7h-5.8l14.8-43.5h6.8l14.9,43.5h-6l-4.7-13.7H469.8L469.8,333.8z M501.5,316.2
	l4.1,15.9c0.9,3.5,1.8,6.7,2.3,10h0.2c0.7-3.2,1.8-6.5,2.8-10l5.1-15.9h4.8l4.8,15.6c1.2,3.8,2.1,7,2.8,10.2h0.2
	c0.5-3.2,1.4-6.5,2.4-10.2l4.5-15.7h5.6L531,347.5h-5.2l-4.8-14.9c-1.1-3.5-2-6.6-2.8-10.3h-0.1c-0.8,3.7-1.8,7-2.8,10.4l-5,14.9
	h-5.2l-9.4-31.3C495.6,316.2,501.5,316.2,501.5,316.2z M561.5,331.5c-6.2-0.1-13.3,1-13.3,7c0,3.7,2.5,5.5,5.4,5.5
	c4.1,0,6.6-2.6,7.6-5.3c0.2-0.6,0.3-1.2,0.3-1.8V331.5z M566.9,340c0,2.7,0.2,5.4,0.5,7.5h-5.2l-0.4-3.9h-0.2
	c-1.8,2.4-5.1,4.6-9.6,4.6c-6.3,0-9.6-4.5-9.6-9c0-7.6,6.7-11.7,18.8-11.6V327c0-2.6-0.7-7.2-7.1-7.2c-2.9,0-5.9,0.9-8.2,2.3
	l-1.3-3.8c2.6-1.7,6.3-2.8,10.3-2.8c9.6,0,11.9,6.5,11.9,12.8V340L566.9,340z M576.2,316.2l6.8,18.5c0.7,2.1,1.5,4.5,2,6.4h0.1
	c0.6-1.9,1.2-4.3,2-6.5l6.2-18.4h6l-8.6,22.4c-4,10.8-6.8,15.4-10.7,18.7c-2.8,2.5-5.6,3.4-7,3.7l-1.4-4.8c1.4-0.5,3.3-1.4,5-2.8
	c1.6-1.2,3.5-3.4,4.8-6.3c0.3-0.6,0.4-1,0.4-1.4c0-0.3-0.1-0.8-0.4-1.5l-11.5-28L576.2,316.2L576.2,316.2z M44.9,330l-4.2-12.5
	c-1-2.8-1.6-5.4-2.2-7.9h-0.2c-0.6,2.5-1.3,5.2-2.2,7.8L31.9,330L44.9,330L44.9,330z M30.7,334.3l-4.5,13.6h-5.8l14.7-43.2h6.7
	l14.8,43.2h-5.9l-4.6-13.6H30.7z M66.9,335.5c0,0.7,0.1,1.4,0.3,2.1c1.1,3.9,4.3,6.6,8.4,6.6c5.9,0,9.4-4.8,9.4-11.9
	c0-6.3-3.2-11.5-9.2-11.5c-3.9,0-7.4,2.6-8.6,6.9c-0.1,0.6-0.3,1.4-0.3,2.3L66.9,335.5L66.9,335.5z M61.1,347.9
	c0.2-2.1,0.3-5.3,0.3-8v-37.5h5.6v19.5h0.1c2-3.5,5.6-5.7,10.6-5.7c7.7,0,13.2,6.4,13.1,15.8c0,11.1-7,16.6-13.9,16.6
	c-4.5,0-8.1-1.7-10.4-5.8h-0.2l-0.3,5.1L61.1,347.9L61.1,347.9z M96.6,326.6c0-3.7-0.1-6.8-0.3-9.7h4.9l0.2,6.1h0.3
	c1.4-4.2,4.8-6.8,8.6-6.8c0.6,0,1.1,0.1,1.6,0.2v5.3c-0.6-0.1-1.2-0.2-2-0.2c-3.9,0-6.8,3-7.5,7.2c-0.1,0.8-0.2,1.7-0.2,2.7v16.6
	h-5.6V326.6L96.6,326.6z M116.5,316.9h5.6l0,31h-5.7L116.5,316.9L116.5,316.9z M122.8,308.2c0.1,1.9-1.3,3.5-3.6,3.5
	c-2,0-3.4-1.5-3.4-3.4c0-2,1.5-3.5,3.5-3.5C121.5,304.7,122.8,306.2,122.8,308.2L122.8,308.2z M137,308v8.9h8.1v4.3H137v16.7
	c0,3.9,1.1,6.1,4.2,6.1c1.5,0,2.5-0.2,3.3-0.4l0.3,4.2c-1.1,0.4-2.8,0.8-5,0.8c-2.6,0-4.7-0.8-6.1-2.4c-1.6-1.7-2.2-4.4-2.2-8.1
	v-16.9h-4.8v-4.3h4.8v-7.4L137,308L137,308z M169.5,329.4c0.1-3.6-1.5-9.2-7.8-9.2c-5.7,0-8.2,5.3-8.7,9.2H169.5L169.5,329.4z
	 M152.9,333.4c0.1,7.6,5,10.8,10.7,10.8c4,0,6.5-0.7,8.6-1.6l1,4c-2,0.9-5.4,1.9-10.4,1.9c-9.6,0-15.2-6.3-15.2-15.6
	s5.5-16.7,14.5-16.7c10.2,0,12.8,8.9,12.8,14.6c0,1.2-0.1,2.1-0.2,2.6L152.9,333.4L152.9,333.4z M180.6,302.4h5.7v45.5h-5.7
	C180.6,347.9,180.6,302.4,180.6,302.4z"/>
<path class="st1" d="M272.5,321.7v1.1l1.1-0.1l6.4-0.9l0.8-0.1V310l-1.1,0.1l-6.4,0.6l-0.9,0.1L272.5,321.7L272.5,321.7z M280,334.8
	l0.8-0.1v-11.7l-1.1,0.2l-6.4,0.9l-0.8,0.2v12l1.2-0.2L280,334.8L280,334.8z M261.7,336.8v1.2l1.2-0.2l7.7-1.4l0.8-0.1v-0.8l0-10.1
	v-1.1l-1.1,0.2l-7.7,1l-0.8,0.1v0.8L261.7,336.8L261.7,336.8z M222.7,344.8v0.8l0.8,0.2l32.5,5.9l1.2,0.2v-44.6l-0.3-0.3l-17-19.1
	l-0.8-0.8l-0.7,0.9l-15.4,18.2l-0.3,0.3v28.5l1.1-0.2l14.7-2.2h0.1c0.3,0,0.7,0,1,0.1c0.5,0.2,0.7,0.5,0.8,1.2
	c0.1,1-0.2,1.4-0.7,1.7c-0.3,0.1-0.6,0.2-0.7,0.2l-15.3,2.5l-0.8,0.1L222.7,344.8L222.7,344.8z M262.7,311.8l-0.9,0.1v0.9l0,10.4
	v1.1l1.1-0.2l7.7-1l0.9-0.1V311l-1.1,0.1L262.7,311.8L262.7,311.8z"/>
<path class="st0" d="M273.5,321.7v-10l6.4-0.6v9.8L273.5,321.7L273.5,321.7z M279.9,333.8l-6.3,1.1v-10l6.4-0.9L279.9,333.8
	L279.9,333.8z M262.7,336.9l0-10.5l7.7-1l0.1,10.1C270.4,335.5,262.7,336.9,262.7,336.9z M223.7,344.8v-5.6l15.2-2.5
	c0,0,2.6,0,2.4-2.9c-0.2-2.6-2.9-2.2-2.9-2.2l-14.7,2.2v-26.9l15.4-18.3l17.1,19.1v43L223.7,344.8L223.7,344.8z M262.7,312.8
	l7.7-0.7v10.1l-7.7,1L262.7,312.8L262.7,312.8z M269.9,283.5h-35.3l-20.8,24.6l7.3-0.5v26.6l-5.6,0.8c0,0-2.7,0.5-2,3.4
	c0.6,2.1,2.7,2.1,2.7,2.1l4.9-0.8v7l35.1,6.4l27.6-6.3l-0.1-38.6l7.6-0.7L269.9,283.5L269.9,283.5z"/>
<path class="st0" d="M246.3,323.2c-1.4,1.8-3.3,2.9-5.4,3h-0.3c-2.1,0-4.1-1.1-5.6-2.8c-1.6-1.8-2.6-4.3-2.7-7.2v-0.7
	c0-2.8,0.9-5.3,2.2-7.1c1.4-1.8,3.3-2.9,5.4-3h0.3c2.1,0,4.1,1,5.6,2.8c1.6,1.8,2.6,4.3,2.7,7.2v0.7
	C248.5,318.9,247.7,321.4,246.3,323.2 M247.3,306.9c-1.8-2.2-4.4-3.5-7.2-3.5l-0.5,0c-2.7,0.1-5.2,1.6-6.8,3.8
	c-1.7,2.2-2.7,5.1-2.7,8.3v0.8c0.2,3.3,1.4,6.2,3.2,8.4c1.8,2.2,4.4,3.5,7.2,3.5h0.4c2.8-0.1,5.2-1.6,6.9-3.8
	c1.7-2.2,2.7-5.1,2.7-8.3v-0.8C250.4,312,249.2,309.1,247.3,306.9"/>
<path class="st0" d="M236.9,316.1c-0.2-3.6,1-6.6,2.7-7.8c-3,0.2-5.2,3.8-5,8c0.2,4.2,2.9,7.6,5.9,7.4v-0.1
	C238.5,322.7,237,319.7,236.9,316.1 M198.6,307.1h0.6c0.8,0,1.4-0.3,1.4-0.9c0-0.5-0.4-0.9-1.3-0.9c-0.4,0-0.6,0-0.7,0.1V307.1
	L198.6,307.1z M198.5,310.4h-1.4v-5.9c0.5-0.1,1.3-0.2,2.3-0.2c1.1,0,1.6,0.2,2,0.5c0.4,0.2,0.6,0.7,0.6,1.3c0,0.7-0.5,1.2-1.2,1.4
	v0.1c0.6,0.2,0.9,0.6,1.1,1.4c0.2,0.9,0.3,1.2,0.4,1.4h-1.4c-0.2-0.2-0.3-0.7-0.5-1.4c-0.1-0.6-0.5-0.9-1.2-0.9h-0.6L198.5,310.4
	L198.5,310.4z M194.9,307.3c0,2.6,2,4.7,4.6,4.7c2.5,0,4.5-2.1,4.5-4.7c0-2.6-2-4.7-4.6-4.7C196.9,302.6,194.9,304.8,194.9,307.3
	L194.9,307.3z M205.5,307.3c0,3.3-2.7,6-6.1,6c-3.4,0-6.1-2.6-6.1-6c0-3.3,2.7-5.9,6.1-5.9C202.8,301.4,205.5,304,205.5,307.3z
	 M609.7,306.9h-3.1v8.6h-1.3v-8.6h-3v-1h7.4L609.7,306.9L609.7,306.9z M612.7,305.9l3,7.7h0l3-7.8h1.6v9.5h-1.3v-3.8l0.2-3.9h0
	l-3.1,7.7h-0.9l-3.1-7.6h0l0.1,3.8v3.8h-1.3v-9.6L612.7,305.9L612.7,305.9z M312.8,304.8v17.9h20.6v-17.9h5.6v42.7h-5.6v-20h-20.6
	v20h-5.5v-42.7H312.8L312.8,304.8z"/>
</svg>
