<?xml version="1.0" encoding="utf-8"?>
<!-- Generator: Adobe Illustrator 19.0.0, SVG Export Plug-In . SVG Version: 6.00 Build 0)  -->
<svg version="1.1" id="Calque_1" xmlns="http://www.w3.org/2000/svg" xmlns:xlink="http://www.w3.org/1999/xlink" x="0px" y="0px"
	 viewBox="-147 288.4 298.9 265" style="enable-background:new -147 288.4 298.9 265;" xml:space="preserve">
<style type="text/css">
	.st0{fill:#666666;}
</style>
<g>
	<path class="st0" d="M129.3,414c-13.1,0-23.7,10.6-23.7,23.8v15H-17c13.8-15,13.1-38.1-1.3-52.5L-47,371.5
		c-14.4-14.4-37.5-15-52.5-1.3v-58.1c0-13.1-10.6-23.8-23.8-23.8S-147,299-147,312.1V529c0,13.1,10.6,23.8,23.8,23.8
		s23.8-10.6,23.8-23.8v-14.4h203.7v15c0,13.1,10.6,23.8,23.7,23.8s23.7-10.6,23.7-23.8v-91.3C153,424.6,142.4,414,129.3,414z
		 M-98.9,427.1l25.6,25.6h-25.6V427.1z M-91.4,380.9c10-10,26.3-10,36.3,0l28.7,28.8c10,10,10,26.3,0,36.3s-26.3,10-36.3,0
		l-28.7-28.8C-101.4,407.1-101.4,390.9-91.4,380.9z M140.5,529.6c0,6.3-5,11.3-11.3,11.3c-6.2,0-11.2-5-11.2-11.3v-21.3
		c0-3.8-2.5-6.3-6.3-6.3h-216.9c-3.8,0-6.3,2.5-6.3,6.3v21.3c0,6.3-5,11.3-11.3,11.3s-11.3-5-11.3-11.3V312.1
		c0-6.3,5-11.3,11.3-11.3s11.3,5,11.3,11.3V459c0,3.8,2.5,6.3,6.3,6.3h216.3c3.7,0,6.3-2.5,6.3-6.3v-21.3c0-6.3,5-11.3,11.2-11.3
		c6.3,0,11.3,5,11.3,11.3v91.9H140.5z"/>
</g>
</svg>
