<?xml version="1.0" encoding="utf-8"?>
<!-- Generator: Adobe Illustrator 19.0.0, SVG Export Plug-In . SVG Version: 6.00 Build 0)  -->
<svg version="1.1" id="Calque_1" xmlns="http://www.w3.org/2000/svg" xmlns:xlink="http://www.w3.org/1999/xlink" x="0px" y="0px"
	 viewBox="-141.8 283.4 291 275" style="enable-background:new -141.8 283.4 291 275;" xml:space="preserve">
<style type="text/css">
	.st0{fill:#666666;}
</style>
<title>Монтажная область 5</title>
<path class="st0" d="M145.1,376.5L7.6,284.8c-2.8-1.8-6.4-1.8-9.2,0l-137.1,91.7c-3.6,2.9-4.1,8.1-1.3,11.7c2.5,3.1,6.9,4,10.4,2.1
	L3,301.7l133.3,88.6c1.3,0.9,2.9,1.4,4.6,1.4c4.6,0,8.3-3.8,8.3-8.4c0-2.8-1.4-5.3-3.7-6.9H145.1z"/>
<path class="st0" d="M103,383.4c-4.6,0-8.3,3.7-8.3,8.3v150h-50v-91.7c0-4.6-3.7-8.3-8.3-8.3h-66.7c-4.6,0-8.3,3.7-8.3,8.3v91.7h-50
	v-150c0-4.6-3.7-8.3-8.3-8.3c-4.6,0-8.3,3.7-8.3,8.3v158.3c0,4.6,3.7,8.3,8.3,8.3h200c4.6,0,8.3-3.7,8.3-8.3V391.7
	C111.3,387.1,107.6,383.4,103,383.4z M-22,541.7v-83.3h50v83.3H-22z"/>
</svg>
