<?xml version="1.0" encoding="utf-8"?>
<!-- Generator: Adobe Illustrator 19.0.0, SVG Export Plug-In . SVG Version: 6.00 Build 0)  -->
<svg version="1.1" id="Calque_1" xmlns="http://www.w3.org/2000/svg" xmlns:xlink="http://www.w3.org/1999/xlink" x="0px" y="0px"
	 viewBox="-180 275.4 234.1 291.5" style="enable-background:new -180 275.4 234.1 291.5;" xml:space="preserve">
<style type="text/css">
	.st0{fill:#666666;}
</style>
<path class="st0" d="M-17.5,440.1c-30.5,0-60.9,0-91,0c-39.3,0-71.5,32.2-71.5,71.5c0,18.4,0,36.8,0,55.3c5,0,9.9,0,15.2,0
	c0-18.4,0-36.8,0-55.3c0-31.2,25.1-56.3,56.3-56.3c30.1,0,60.6,0,91,0c30.8,0,56.3,25.1,56.3,56.3c0,18.4,0,36.8,0,55.3
	c5,0,9.9,0,15.2,0c0-18.4,0-36.8,0-55.3C54,472.3,21.9,440.1-17.5,440.1z"/>
<path class="st0" d="M-63.8,434.7c43.9,0,79.7-35.4,79.7-79.7c0-43.9-35.8-79.7-79.7-79.7c-44.3,0-79.7,35.8-79.7,79.7
	C-143.5,399.3-108.2,434.7-63.8,434.7z M-63.8,290.6c35.4,0,64.5,28.7,64.5,64.5s-29,64.8-64.5,64.8c-35.8,0-64.8-29-64.8-64.8
	S-99.7,290.6-63.8,290.6z"/>
</svg>
